# xmcd
#
# Track frame offsets:
# 150
# 7832
# 19607
# 29730
# 43007
#
# Disc length: 737 seconds
#
# Revision: 0
# Processed by: cddbd v1.4PL0 Copyright (c) Steve Scherf et al.
# Submitted via: Audion 3.0.2 (http://www.panic.com/audion/)
#
DISCID=3102df05
DTITLE=Johnny Cash - The Alternative Johnny Cash
DYEAR=1900
DGENRE=
TTITLE0=I Still Miss Someone
TTITLE1=Train Of Love
TTITLE2=Get Rhythm
TTITLE3=Folsom Prison Blues
TTITLE4=I Walk The Line
EXTD=
EXTT0=
EXTT1=
EXTT2=
EXTT3=
EXTT4=
PLAYORDER=
